<svg fill="#357D82" xmlns="http://www.w3.org/2000/svg"  viewBox="0 0 80 80" width="100px" height="100px"><path fill="none" stroke="#357D82" stroke-linejoin="round" stroke-miterlimit="10" stroke-width="2" d="M56,62l1,5H21 c-5.523,0-10-4.477-10-10V21c0-5.523,4.477-10,10-10h38c5.523,0,10,4.477,10,10v53L56,62z"/><circle cx="48" cy="62" r="1"/><circle cx="52" cy="62" r="1"/><circle cx="44" cy="62" r="1"/><circle cx="40" cy="62" r="1"/><circle cx="36" cy="62" r="1"/><circle cx="32" cy="62" r="1"/><circle cx="28" cy="62" r="1"/><circle cx="24" cy="62" r="1"/><circle cx="20" cy="62" r="1"/><circle cx="20" cy="16" r="1"/><circle cx="24" cy="16" r="1"/><circle cx="28" cy="16" r="1"/><circle cx="32" cy="16" r="1"/><circle cx="36" cy="16" r="1"/><circle cx="40" cy="16" r="1"/><circle cx="44" cy="16" r="1"/><circle cx="48" cy="16" r="1"/><circle cx="52" cy="16" r="1"/><circle cx="56" cy="16" r="1"/><circle cx="60" cy="16" r="1"/><path fill="none" stroke="#357D82" stroke-linecap="round" stroke-linejoin="round" stroke-miterlimit="10" stroke-width="2" d="M46.694,49.387l2.568,3.488c1.762-0.056,8.409-1.347,10.738-5.391c0-8.616-3.788-18.652-5.454-20.173 c-3.445-2.736-9.091-3.187-9.091-3.187s-0.45,0.991-0.569,2.224"/><ellipse cx="34" cy="40.5" fill="none" stroke="#357D82" stroke-linecap="round" stroke-linejoin="round" stroke-miterlimit="10" stroke-width="2" rx="3" ry="3.5"/><ellipse cx="46" cy="40.5" fill="none" stroke="#357D82" stroke-linecap="round" stroke-linejoin="round" stroke-miterlimit="10" stroke-width="2" rx="3" ry="3.5"/><path fill="none" stroke="#357D82" stroke-linecap="round" stroke-linejoin="round" stroke-miterlimit="10" stroke-width="2" d="M35.114,26.349c-0.119-1.233-0.569-2.224-0.569-2.224s-5.646,0.451-9.091,3.187C23.788,28.833,20,38.868,20,47.484 c2.329,4.043,8.978,5.335,10.738,5.391l2.568-3.488"/><path fill="none" stroke="#357D82" stroke-linecap="round" stroke-linejoin="round" stroke-miterlimit="10" stroke-width="2" d="M27,46c0,0,4.194,4,13,4s13-4,13-4 M51.864,30.002C47.4,27.265,41.929,27,40,27s-7.4,0.265-11.864,3.002"/></svg>
