<svg fill="#357D82" xmlns="http://www.w3.org/2000/svg"  viewBox="0 0 80 80" width="100px" height="100px"><path d="M51 42A1 1 0 1 0 51 44 1 1 0 1 0 51 42zM29 42A1 1 0 1 0 29 44 1 1 0 1 0 29 42z"/><path fill="none" stroke="#357D82" stroke-miterlimit="10" stroke-width="2" d="M51 39A4 4 0 1 0 51 47 4 4 0 1 0 51 39zM29 39A4 4 0 1 0 29 47 4 4 0 1 0 29 39z"/><path fill="none" stroke="#357D82" stroke-linecap="round" stroke-miterlimit="10" stroke-width="2" d="M28,55c0,0,4,5,12,5s12-5,12-5"/><path fill="none" stroke="#357D82" stroke-miterlimit="10" stroke-width="2" d="M40,26l4.5-13l9.755,3.469"/><path fill="none" stroke="#357D82" stroke-miterlimit="10" stroke-width="2" d="M58 14A4 4 0 1 0 58 22 4 4 0 1 0 58 14zM10 35.5c0-3.59 2.91-6.5 6.5-6.5 1.938 0 3.672.852 4.863 2.197C26.313 27.965 32.841 26 40 26s13.687 1.965 18.637 5.197C59.828 29.852 61.562 29 63.5 29c3.59 0 6.5 2.91 6.5 6.5 0 2.312-1.211 4.337-3.029 5.489C67.637 42.742 68 44.589 68 46.5 68 57.843 55.467 67 40 67s-28-9.157-28-20.5c0-1.911.363-3.758 1.029-5.511C11.211 39.837 10 37.812 10 35.5z"/><path fill="none" stroke="#357D82" stroke-dasharray=".1,4" stroke-linecap="round" stroke-miterlimit="10" stroke-width="2" d="M67.795 44.002c-.947-5.729-5.114-10.722-11.134-13.986M21.586 31.048c-4.661 2.979-7.96 7.071-9.124 11.718"/></svg>
