<?xml version="1.0" encoding="UTF-8" standalone="no"?>
<!DOCTYPE svg PUBLIC "-//W3C//DTD SVG 20010904//EN"
              "http://www.w3.org/TR/2001/REC-SVG-20010904/DTD/svg10.dtd">

<svg xmlns="http://www.w3.org/2000/svg"
     width="510.00mm" height="290.00mm"
     viewBox="0 0 1920 1080">
  <path id="Selezione"
        fill="#FFFFFF"
        d="M 775.00,509.00
           C 776.18,494.61 783.29,475.24 789.14,462.00
             813.14,407.71 863.97,367.77 922.00,356.00
             930.95,354.19 939.94,353.53 949.00,352.91
             949.00,352.91 958.00,352.01 958.00,352.01
             958.00,352.01 971.00,352.91 971.00,352.91
             993.46,354.45 1011.02,358.11 1032.00,366.60
             1062.07,378.78 1087.74,398.54 1107.79,424.00
             1117.67,436.55 1124.43,448.63 1131.22,463.00
             1136.82,474.86 1134.79,477.93 1145.00,478.00
             1145.00,478.00 1165.00,478.00 1165.00,478.00
             1167.45,478.02 1170.38,477.78 1172.30,479.60
             1174.06,481.27 1175.52,486.56 1176.33,489.00
             1176.33,489.00 1183.34,509.00 1183.34,509.00
             1183.34,509.00 1207.69,578.00 1207.69,578.00
             1207.69,578.00 1220.00,615.00 1220.00,615.00
             1220.00,615.00 1196.00,615.00 1196.00,615.00
             1189.06,614.88 1189.55,613.45 1186.72,604.00
             1185.45,599.78 1181.93,585.04 1178.72,583.02
             1176.77,581.79 1173.28,582.00 1171.00,582.00
             1166.20,581.99 1148.25,581.10 1145.14,582.56
             1142.27,583.91 1141.96,586.33 1139.70,588.68
             1136.79,591.71 1132.86,593.52 1129.00,595.00
             1127.83,588.43 1131.66,586.12 1134.00,580.00
             1127.08,585.45 1124.16,594.21 1117.71,600.83
             1110.65,608.07 1094.91,614.00 1085.00,616.00
             1085.00,616.00 1093.54,596.00 1093.54,596.00
             1093.54,596.00 1097.81,583.00 1097.81,583.00
             1097.81,583.00 1118.00,558.00 1118.00,558.00
             1118.00,558.00 1097.00,577.00 1097.00,577.00
             1097.64,563.23 1109.50,543.34 1113.00,526.00
             1105.79,532.53 1106.23,548.27 1098.00,556.00
             1098.00,556.00 1097.00,534.00 1097.00,534.00
             1091.53,541.74 1094.79,549.34 1094.99,558.00
             1094.99,558.00 1093.41,577.00 1093.41,577.00
             1091.71,587.90 1087.07,604.62 1079.79,612.99
             1075.05,618.43 1060.68,627.21 1054.00,631.67
             1047.40,636.07 1039.40,642.66 1032.00,645.00
             1032.56,641.40 1033.56,636.21 1036.42,633.70
             1041.14,629.54 1048.93,632.17 1055.00,627.00
             1055.00,627.00 1041.00,628.00 1041.00,628.00
             1041.00,628.00 1056.00,611.00 1056.00,611.00
             1056.00,611.00 1045.00,618.00 1045.00,618.00
             1045.00,618.00 1046.00,607.00 1046.00,607.00
             1040.13,612.33 1042.66,614.93 1040.28,621.00
             1040.28,621.00 1032.32,634.00 1032.32,634.00
             1030.27,637.90 1028.50,643.71 1025.61,646.78
             1020.50,652.21 1005.85,651.39 998.00,653.24
             989.32,655.28 984.41,659.68 976.00,661.00
             976.00,661.00 993.25,639.00 993.25,639.00
             993.25,639.00 999.46,629.00 999.46,629.00
             999.46,629.00 1002.54,622.00 1002.54,622.00
             1005.92,615.60 1014.64,603.94 1020.00,599.18
             1024.30,595.38 1028.92,593.26 1034.00,590.76
             1039.00,588.30 1046.38,584.65 1052.00,585.20
             1056.83,585.67 1057.16,587.36 1063.00,587.00
             1063.00,587.00 1049.00,581.00 1049.00,581.00
             1055.60,578.11 1062.29,577.67 1067.00,572.00
             1059.47,574.00 1055.31,574.85 1048.00,578.32
             1037.58,583.26 1034.53,587.23 1022.00,589.00
             1030.63,573.99 1048.36,557.70 1062.00,547.01
             1068.59,541.85 1077.75,538.31 1082.00,533.00
             1082.00,533.00 1070.00,537.00 1070.00,537.00
             1070.00,537.00 1078.72,518.00 1078.72,518.00
             1078.72,518.00 1090.00,504.00 1090.00,504.00
             1090.00,504.00 1077.00,513.00 1077.00,513.00
             1077.00,513.00 1077.00,502.00 1077.00,502.00
             1070.57,508.32 1074.58,515.15 1071.45,524.00
             1067.55,535.08 1054.39,547.90 1044.00,553.00
             1044.40,544.24 1047.16,533.13 1050.45,525.00
             1050.45,525.00 1055.00,514.00 1055.00,514.00
             1055.00,514.00 1049.00,518.00 1049.00,518.00
             1049.00,518.00 1059.00,472.00 1059.00,472.00
             1054.24,474.86 1055.20,477.95 1054.19,483.00
             1053.08,488.56 1051.47,495.51 1048.00,500.00
             1047.11,493.23 1047.96,486.60 1044.00,481.00
             1042.70,489.29 1044.99,497.66 1045.00,506.00
             1045.02,521.06 1042.34,547.89 1035.10,561.00
             1035.10,561.00 1017.88,583.00 1017.88,583.00
             1014.17,588.04 1008.91,597.17 1005.00,601.00
             1005.00,601.00 1005.62,583.00 1005.62,583.00
             1005.62,583.00 1011.00,561.00 1011.00,561.00
             1005.09,568.76 1006.85,572.59 1001.00,576.00
             1000.75,571.70 1000.86,570.32 997.00,568.00
             999.39,580.69 1002.31,600.63 998.25,613.00
             996.05,619.71 991.37,626.28 987.29,632.00
             982.99,638.02 979.26,644.52 972.00,647.00
             968.73,637.10 970.25,633.61 970.91,624.00
             971.99,608.21 973.40,593.55 982.77,580.00
             982.77,580.00 1017.55,538.00 1017.55,538.00
             1023.62,527.82 1022.52,524.69 1025.13,514.00
             1028.99,498.18 1029.29,493.57 1031.42,478.00
             1031.42,478.00 1034.00,462.00 1034.00,462.00
             1034.00,462.00 1029.00,467.00 1029.00,467.00
             1029.00,467.00 1024.00,465.00 1024.00,465.00
             1025.49,469.85 1027.35,472.66 1027.83,478.00
             1028.87,489.59 1022.82,509.35 1020.21,521.00
             1018.32,529.40 1012.51,542.84 1004.00,546.00
             1004.09,536.89 1005.66,535.50 1012.00,529.00
             1012.00,529.00 1005.00,530.00 1005.00,530.00
             1003.30,520.49 1004.02,510.64 1004.00,501.00
             1003.99,496.25 1004.52,494.56 1001.00,491.00
             1001.00,491.00 999.94,505.00 999.94,505.00
             1000.65,511.59 1001.54,516.16 999.94,523.00
             998.80,526.36 996.77,528.14 994.96,531.00
             993.24,533.71 991.86,537.42 989.61,539.59
             986.49,542.60 976.38,546.21 972.00,547.00
             971.11,542.01 969.11,525.10 970.98,521.00
             974.00,514.39 984.12,507.15 988.00,497.00
             988.00,497.00 969.00,515.00 969.00,515.00
             968.59,509.96 965.98,497.04 968.17,493.11
             970.35,489.21 976.02,488.00 980.00,486.67
             989.06,483.64 995.34,482.22 1003.00,476.00
             1003.00,476.00 987.00,481.00 987.00,481.00
             987.00,481.00 995.00,468.00 995.00,468.00
             986.48,472.07 988.21,476.72 981.96,481.35
             979.21,483.39 971.56,486.45 968.14,485.65
             962.89,484.41 964.57,477.21 966.70,474.00
             972.45,465.36 986.91,460.44 994.00,451.00
             994.00,451.00 986.00,455.00 986.00,455.00
             986.00,455.00 987.00,446.00 987.00,446.00
             982.74,450.47 983.94,452.64 981.16,456.98
             978.30,461.45 973.92,463.59 969.00,465.00
             969.00,465.00 976.00,446.00 976.00,446.00
             976.00,446.00 969.00,452.00 969.00,452.00
             969.00,452.00 965.00,441.00 965.00,441.00
             965.00,441.00 965.67,462.00 965.67,462.00
             965.67,462.00 961.00,478.00 961.00,478.00
             956.59,474.33 956.28,472.57 956.00,467.00
             956.00,467.00 952.00,469.00 952.00,469.00
             952.00,469.00 946.00,457.00 946.00,457.00
             946.12,469.57 949.56,467.76 950.78,475.00
             952.23,483.66 950.11,494.89 947.00,503.00
             947.00,503.00 945.00,503.00 945.00,503.00
             943.62,498.28 943.38,493.74 939.00,491.00
             939.00,491.00 937.00,498.00 937.00,498.00
             935.42,493.39 934.40,492.14 930.00,490.00
             934.04,500.55 941.09,504.95 943.03,510.00
             944.31,513.35 942.73,516.81 941.67,520.00
             938.96,528.17 937.31,534.40 933.00,542.00
             933.00,542.00 930.94,542.00 930.94,542.00
             925.25,522.10 925.55,495.96 930.94,476.00
             933.67,465.58 940.47,456.92 941.00,446.00
             934.17,451.83 937.12,462.18 928.00,467.00
             928.00,467.00 919.00,450.00 919.00,450.00
             919.28,462.58 923.25,462.85 924.67,471.00
             926.09,479.07 924.06,498.85 922.00,507.00
             922.00,507.00 907.00,492.00 907.00,492.00
             907.00,492.00 910.00,500.00 910.00,500.00
             910.00,500.00 897.00,492.00 897.00,492.00
             901.76,501.84 914.91,504.13 919.86,513.01
             921.87,516.61 922.95,527.66 923.00,532.00
             923.00,532.00 924.00,551.00 924.00,551.00
             924.00,551.00 925.00,592.00 925.00,592.00
             916.80,588.78 911.57,579.92 906.58,573.00
             902.63,567.53 897.97,562.33 895.46,556.00
             891.66,546.38 891.60,536.11 890.91,526.00
             890.91,526.00 887.28,488.00 887.28,488.00
             886.30,480.50 886.01,468.49 883.00,462.00
             883.00,462.00 882.00,465.00 882.00,465.00
             882.00,465.00 879.00,464.00 879.00,464.00
             879.38,481.26 885.12,490.47 886.00,501.00
             880.50,498.09 879.54,493.38 877.14,488.00
             874.41,481.89 868.91,471.29 864.00,467.00
             864.00,467.00 871.00,483.00 871.00,483.00
             871.00,483.00 862.00,480.00 862.00,480.00
             868.45,488.51 871.31,488.63 874.96,493.18
             884.41,504.97 884.00,514.90 884.00,529.00
             884.00,529.00 876.00,521.00 876.00,521.00
             877.83,530.61 887.42,538.70 885.00,549.00
             876.33,546.44 868.66,537.37 865.56,529.00
             865.56,529.00 862.48,517.00 862.48,517.00
             862.48,517.00 857.43,503.00 857.43,503.00
             855.18,495.03 857.06,489.72 850.00,484.00
             850.00,484.00 852.00,495.00 852.00,495.00
             852.00,495.00 840.00,487.00 840.00,487.00
             849.32,498.35 857.20,501.63 858.00,518.00
             858.00,518.00 843.00,507.00 843.00,507.00
             850.58,517.59 855.83,517.78 862.00,532.00
             849.70,535.38 838.10,526.51 831.44,517.00
             827.88,511.93 827.47,508.01 823.00,504.00
             823.00,504.00 826.00,515.00 826.00,515.00
             826.00,515.00 814.00,509.00 814.00,509.00
             814.00,509.00 832.00,522.92 832.00,522.92
             832.00,522.92 845.00,532.65 845.00,532.65
             845.00,532.65 860.00,539.00 860.00,539.00
             860.00,539.00 848.00,542.95 848.00,542.95
             848.00,542.95 835.00,542.95 835.00,542.95
             838.35,544.33 843.42,546.48 847.00,546.37
             851.63,546.24 853.80,543.32 861.00,544.18
             867.01,544.90 871.24,548.21 876.00,551.58
             884.19,557.36 890.33,561.08 894.00,571.00
             894.00,571.00 885.00,570.04 885.00,570.04
             885.00,570.04 869.00,570.04 869.00,570.04
             872.08,572.84 872.90,572.76 877.00,573.00
             877.00,573.00 870.00,579.00 870.00,579.00
             878.38,579.50 885.73,573.00 895.00,575.31
             899.89,576.54 903.75,582.25 906.80,586.00
             913.63,594.40 930.10,605.59 929.00,617.00
             907.75,610.79 904.54,606.80 887.00,595.00
             887.00,595.00 901.00,611.00 901.00,611.00
             901.00,611.00 888.00,617.00 888.00,617.00
             888.00,617.00 902.00,615.04 902.00,615.04
             910.03,614.69 924.89,618.81 930.81,624.34
             936.36,629.51 935.43,635.21 942.00,641.00
             942.00,641.00 941.00,634.00 941.00,634.00
             943.16,637.98 943.60,638.43 943.80,643.00
             943.64,646.24 945.67,653.27 943.80,655.32
             942.14,657.67 937.30,655.99 935.00,655.32
             927.22,652.77 917.94,647.90 911.00,643.58
             901.00,637.34 892.00,630.57 886.32,620.00
             886.32,620.00 876.00,594.00 876.00,594.00
             876.00,594.00 882.00,620.00 882.00,620.00
             876.47,617.62 871.42,615.24 867.09,610.91
             867.09,610.91 845.54,579.00 845.54,579.00
             835.95,567.31 830.28,567.07 824.33,559.99
             817.68,552.09 822.07,548.81 816.00,545.00
             816.00,545.00 818.00,560.00 818.00,560.00
             818.00,560.00 799.00,560.00 799.00,560.00
             807.54,562.47 817.68,562.92 825.00,566.32
             840.07,573.33 856.33,597.93 860.00,614.00
             848.86,610.28 829.64,600.72 821.42,592.57
             821.42,592.57 804.00,571.00 804.00,571.00
             804.00,571.00 805.00,577.00 805.00,577.00
             805.00,577.00 792.00,574.00 792.00,574.00
             799.42,581.77 807.78,578.67 814.00,590.00
             806.49,593.19 800.06,593.99 792.00,594.00
             792.00,594.00 792.00,595.92 792.00,595.92
             792.00,595.92 802.00,595.92 802.00,595.92
             802.00,595.92 814.00,594.15 814.00,594.15
             818.08,594.41 820.66,596.70 824.00,598.77
             830.20,602.62 838.58,605.17 842.00,612.00
             834.54,612.16 815.39,613.42 810.00,618.00
             810.00,618.00 833.00,616.00 833.00,616.00
             847.21,615.84 851.04,615.33 865.00,619.29
             873.38,621.67 878.22,622.65 884.00,630.00
             884.00,630.00 867.00,631.00 867.00,631.00
             867.00,631.00 867.00,633.00 867.00,633.00
             867.00,633.00 883.00,634.39 883.00,634.39
             889.73,635.85 900.90,643.97 904.00,650.00
             892.35,652.83 874.96,649.95 865.00,643.25
             857.22,638.02 851.30,630.43 843.00,626.00
             843.00,626.00 862.00,647.00 862.00,647.00
             843.58,646.83 828.16,634.89 819.00,632.00
             819.00,632.00 827.00,641.00 827.00,641.00
             820.75,639.14 800.70,632.32 796.10,629.03
             790.56,625.07 790.87,618.71 787.36,615.60
             784.63,613.17 775.75,614.00 772.00,614.00
             772.00,614.00 772.00,554.00 772.00,554.00
             771.98,541.11 768.38,529.37 753.00,530.04
             740.69,530.58 735.26,538.91 733.00,550.00
             731.42,557.76 732.00,566.99 732.00,575.00
             732.00,575.00 732.00,614.00 732.00,614.00
             732.00,614.00 704.00,614.00 704.00,614.00
             704.00,614.00 704.00,510.00 704.00,510.00
             708.04,510.00 722.67,508.99 725.07,511.60
             726.53,513.19 728.29,520.56 729.00,523.00
             733.24,519.83 736.37,515.66 741.00,512.95
             750.01,507.70 765.00,506.57 775.00,509.00 Z
           M 536.01,469.70
           C 541.45,468.46 550.50,468.13 554.77,472.28
             559.73,477.08 561.48,494.42 545.00,495.81
             540.73,496.17 534.47,494.75 531.42,491.61
             525.38,485.40 527.45,473.74 536.01,469.70 Z
           M 1627.00,470.53
           C 1632.33,469.65 1639.39,469.60 1643.61,473.57
             1648.73,478.39 1648.10,489.76 1642.67,494.15
             1639.36,496.82 1635.09,497.14 1631.00,496.96
             1614.38,496.23 1611.81,475.42 1627.00,470.53 Z
           M 315.00,477.00
           C 315.00,477.00 368.00,477.83 368.00,477.83
             377.22,478.71 385.14,478.84 394.00,482.45
             406.68,487.63 413.69,499.34 412.91,513.00
             412.63,517.86 411.22,524.77 408.79,529.00
             402.98,539.08 397.71,537.54 392.00,543.00
             410.92,545.92 416.20,558.61 416.00,576.00
             415.87,587.21 411.13,597.38 402.00,604.07
             392.83,610.80 383.88,612.08 373.00,613.17
             373.00,613.17 315.00,614.00 315.00,614.00
             315.00,614.00 315.00,477.00 315.00,477.00 Z
           M 955.00,481.00
           C 958.54,483.75 958.52,488.80 959.25,493.00
             960.72,501.46 965.17,517.13 963.00,525.00
             959.92,523.34 958.72,522.59 956.29,519.96
             953.72,517.18 950.22,512.83 949.70,509.00
             949.19,505.19 951.32,500.58 952.48,497.00
             954.54,490.66 954.98,487.59 955.00,481.00 Z
           M 1226.00,532.00
           C 1226.00,532.00 1227.02,520.33 1227.02,520.33
             1227.02,520.33 1241.19,509.67 1241.19,509.67
             1241.19,509.67 1250.42,490.02 1250.42,490.02
             1250.42,490.02 1267.00,489.00 1267.00,489.00
             1267.00,489.00 1267.00,511.00 1267.00,511.00
             1267.00,511.00 1297.00,511.00 1297.00,511.00
             1297.00,511.00 1297.00,532.00 1297.00,532.00
             1297.00,532.00 1267.00,532.00 1267.00,532.00
             1267.00,532.00 1267.00,577.00 1267.00,577.00
             1267.07,582.77 1267.79,588.77 1273.04,592.27
             1279.24,596.40 1291.46,593.14 1298.00,591.00
             1298.00,591.00 1298.00,605.00 1298.00,605.00
             1297.99,606.87 1298.17,609.75 1297.01,611.30
             1294.32,614.89 1282.34,615.98 1278.00,616.00
             1265.96,616.06 1253.71,617.03 1245.64,605.99
             1241.26,600.01 1240.03,592.23 1240.00,585.00
             1240.00,585.00 1240.00,532.00 1240.00,532.00
             1240.00,532.00 1226.00,532.00 1226.00,532.00 Z
           M 1156.00,499.00
           C 1156.00,499.00 1150.58,513.00 1150.58,513.00
             1150.58,513.00 1147.15,525.00 1147.15,525.00
             1147.15,525.00 1147.15,559.00 1147.15,559.00
             1147.15,559.00 1173.00,559.00 1173.00,559.00
             1173.00,559.00 1156.00,499.00 1156.00,499.00 Z
           M 344.00,532.00
           C 352.70,532.00 369.57,532.82 376.96,528.59
             385.71,523.58 386.17,509.32 377.96,504.00
             370.69,499.30 352.77,500.00 344.00,500.00
             344.00,500.00 344.00,532.00 344.00,532.00 Z
           M 591.00,516.00
           C 604.31,510.68 609.61,508.91 624.00,507.91
             627.14,507.69 628.71,507.08 632.00,507.32
             643.87,508.21 657.03,509.83 665.53,519.17
             672.22,526.53 673.88,537.38 674.00,547.00
             674.00,547.00 674.00,614.00 674.00,614.00
             674.00,614.00 654.00,614.00 654.00,614.00
             654.00,614.00 649.00,599.00 649.00,599.00
             644.38,603.62 639.92,608.65 634.00,611.62
             623.73,616.78 603.90,616.55 594.00,610.65
             577.19,600.63 576.26,569.96 592.00,558.63
             601.29,551.95 614.84,550.06 626.00,550.00
             626.00,550.00 646.00,549.00 646.00,549.00
             646.00,545.77 646.17,542.09 645.20,539.00
             638.96,519.10 612.82,531.55 600.00,535.00
             600.00,535.00 591.00,516.00 591.00,516.00 Z
           M 467.00,527.00
           C 471.68,524.38 474.74,518.59 480.00,514.53
             489.96,506.84 497.33,508.00 509.00,508.00
             509.00,508.00 508.04,526.00 508.04,526.00
             507.93,528.16 508.29,531.48 506.40,532.98
             504.35,534.60 496.06,533.81 493.00,534.18
             485.06,535.14 477.35,540.05 473.36,547.00
             469.10,554.43 470.00,562.78 470.00,571.00
             470.00,571.00 470.00,614.00 470.00,614.00
             470.00,614.00 442.00,614.00 442.00,614.00
             442.00,614.00 442.00,510.00 442.00,510.00
             445.71,510.00 460.08,509.27 462.44,511.02
             464.82,512.78 466.55,523.80 467.00,527.00 Z
           M 1448.00,509.43
           C 1463.78,507.48 1481.12,510.69 1492.71,522.29
             1513.89,543.47 1511.84,589.10 1488.00,607.47
             1476.56,616.29 1464.59,616.16 1451.00,616.00
             1428.98,615.74 1413.10,599.70 1408.24,579.00
             1407.02,573.83 1406.94,569.26 1406.74,564.00
             1406.26,550.64 1408.84,536.95 1416.93,526.00
             1424.59,515.62 1435.75,511.44 1448.00,509.43 Z
           M 1556.00,528.00
           C 1561.63,525.10 1562.49,521.48 1567.09,517.47
             1573.12,512.21 1581.02,509.21 1589.00,509.01
             1591.26,508.96 1596.49,508.55 1597.96,510.60
             1598.91,512.09 1598.12,516.12 1597.96,518.00
             1597.96,518.00 1597.00,536.00 1597.00,536.00
             1594.25,535.33 1592.85,535.08 1590.00,535.01
             1577.49,534.71 1565.62,539.37 1561.10,552.00
             1558.38,559.62 1559.00,568.03 1559.00,576.00
             1559.00,576.00 1559.00,615.00 1559.00,615.00
             1559.00,615.00 1532.00,615.00 1532.00,615.00
             1532.00,615.00 1532.00,511.00 1532.00,511.00
             1532.00,511.00 1553.00,511.00 1553.00,511.00
             1553.00,511.00 1556.00,528.00 1556.00,528.00 Z
           M 529.00,510.00
           C 529.00,510.00 557.00,510.00 557.00,510.00
             557.00,510.00 557.00,614.00 557.00,614.00
             557.00,614.00 529.00,614.00 529.00,614.00
             529.00,614.00 529.00,510.00 529.00,510.00 Z
           M 1313.00,511.00
           C 1313.00,511.00 1389.86,511.00 1389.86,511.00
             1389.86,511.00 1389.86,521.00 1389.86,521.00
             1389.86,521.00 1389.86,528.00 1389.86,528.00
             1389.86,528.00 1376.88,547.00 1376.88,547.00
             1376.88,547.00 1343.00,594.00 1343.00,594.00
             1343.00,594.00 1392.00,594.00 1392.00,594.00
             1392.00,594.00 1392.00,615.00 1392.00,615.00
             1392.00,615.00 1310.00,615.00 1310.00,615.00
             1310.00,615.00 1310.00,605.00 1310.00,605.00
             1310.00,605.00 1310.56,598.00 1310.56,598.00
             1310.56,598.00 1323.63,579.00 1323.63,579.00
             1323.63,579.00 1358.00,532.00 1358.00,532.00
             1358.00,532.00 1313.00,532.00 1313.00,532.00
             1313.00,532.00 1313.00,511.00 1313.00,511.00 Z
           M 1618.00,511.00
           C 1618.00,511.00 1646.00,511.00 1646.00,511.00
             1646.00,511.00 1646.00,615.00 1646.00,615.00
             1646.00,615.00 1618.00,615.00 1618.00,615.00
             1618.00,615.00 1618.00,511.00 1618.00,511.00 Z
           M 947.00,515.00
           C 950.13,517.89 951.85,520.67 954.42,524.00
             966.69,539.90 965.00,550.08 965.00,569.00
             965.00,576.10 965.64,585.26 964.00,592.00
             952.82,589.62 939.18,570.71 940.34,559.00
             941.23,550.02 946.20,546.28 945.00,534.00
             939.49,541.80 943.71,544.64 937.00,551.00
             937.36,543.57 944.33,523.16 947.00,515.00 Z
           M 999.00,530.00
           C 999.33,533.14 998.60,533.45 996.00,535.00
             996.00,535.00 999.00,530.00 999.00,530.00 Z
           M 1453.00,531.30
           C 1434.61,534.90 1434.83,551.88 1435.00,567.00
             1435.21,584.44 1442.93,596.70 1462.00,593.79
             1476.17,591.63 1478.25,575.63 1478.91,564.00
             1479.12,560.34 1478.57,558.47 1478.15,555.00
             1476.28,539.38 1470.45,529.61 1453.00,531.30 Z
           M 966.00,531.00
           C 968.26,535.44 969.84,547.36 968.00,552.00
             968.00,552.00 966.00,531.00 966.00,531.00 Z
           M 975.00,579.00
           C 973.53,572.95 972.09,562.89 974.26,557.00
             977.07,549.37 992.18,540.47 1000.00,539.00
             999.71,552.39 994.63,558.24 986.27,568.00
             982.29,572.65 980.07,575.37 975.00,579.00 Z
           M 929.00,546.00
           C 929.00,546.00 932.00,546.00 932.00,546.00
             932.00,546.00 930.00,550.00 930.00,550.00
             930.00,550.00 929.00,546.00 929.00,546.00 Z
           M 344.00,590.00
           C 352.53,590.00 371.00,591.25 378.00,587.56
             389.29,581.60 390.29,563.89 379.00,557.36
             370.79,552.62 353.74,554.00 344.00,554.00
             344.00,554.00 344.00,590.00 344.00,590.00 Z
           M 934.00,556.00
           C 937.20,562.93 934.96,566.18 944.48,579.00
             948.65,584.62 960.77,596.22 962.42,601.00
             963.11,603.03 963.00,605.84 963.00,608.00
             963.02,619.98 961.29,640.63 958.00,652.00
             952.22,647.09 948.06,636.95 944.78,630.00
             933.68,606.50 931.96,595.60 932.00,570.00
             932.01,563.36 932.15,562.41 934.00,556.00 Z
           M 646.00,565.00
           C 637.30,565.00 636.62,565.04 628.00,566.05
             624.37,566.48 621.29,567.13 618.00,568.83
             615.47,570.15 613.55,571.60 612.01,574.04
             609.02,578.77 609.00,588.29 613.39,592.20
             619.15,597.33 639.50,597.26 644.75,582.00
             646.45,577.08 646.00,570.27 646.00,565.00 Z
           M 969.00,566.00
           C 969.00,566.00 970.00,573.00 970.00,573.00
             970.00,573.00 969.00,566.00 969.00,566.00 Z
           M 1025.00,576.00
           C 1025.30,578.58 1025.11,578.56 1023.00,580.00
             1023.00,580.00 1025.00,576.00 1025.00,576.00 Z
           M 969.00,582.00
           C 969.00,582.00 971.00,582.00 971.00,582.00
             971.00,582.00 972.00,587.00 972.00,587.00
             972.00,587.00 975.00,586.00 975.00,586.00
             970.97,592.05 969.24,586.10 969.00,582.00 Z
           M 912.00,587.00
           C 912.00,587.00 927.30,599.10 927.30,599.10
             927.30,599.10 934.00,615.00 934.00,615.00
             934.00,615.00 937.00,628.00 937.00,628.00
             937.00,628.00 927.79,604.00 927.79,604.00
             927.79,604.00 912.00,587.00 912.00,587.00 Z
           M 1015.00,592.00
           C 1016.73,597.49 1008.61,607.34 1004.00,610.00
             1004.00,610.00 1015.00,592.00 1015.00,592.00 Z
           M 1139.00,593.00
           C 1139.64,598.53 1135.17,607.75 1132.99,613.00
             1130.92,617.98 1125.61,628.93 1122.47,633.00
             1113.78,644.29 1106.32,647.96 1093.00,651.37
             1087.25,652.84 1082.98,653.87 1077.00,654.00
             1077.00,654.00 1087.00,641.00 1087.00,641.00
             1080.35,644.57 1078.65,648.34 1073.00,651.16
             1066.05,654.64 1047.52,653.83 1040.00,652.00
             1044.70,646.30 1063.38,631.12 1070.00,627.90
             1076.91,624.54 1082.30,624.22 1089.00,621.92
             1089.00,621.92 1101.00,617.44 1101.00,617.44
             1108.23,615.28 1116.94,614.83 1123.00,612.00
             1123.00,612.00 1113.00,612.00 1113.00,612.00
             1121.10,601.21 1130.19,599.72 1139.00,593.00 Z
           M 966.00,596.00
           C 969.02,601.20 968.14,616.62 966.00,622.00
             963.66,612.37 965.80,605.26 966.00,596.00 Z
           M 1003.00,611.00
           C 1004.42,613.97 1003.53,614.23 1001.00,616.00
             1001.00,616.00 1003.00,611.00 1003.00,611.00 Z
           M 890.00,632.00
           C 890.00,632.00 895.00,637.00 895.00,637.00
             895.00,637.00 890.00,632.00 890.00,632.00 Z
           M 965.00,636.00
           C 966.26,639.18 965.99,641.64 966.00,645.00
             966.01,652.21 967.06,667.30 969.00,674.00
             969.00,674.00 976.00,672.00 976.00,672.00
             970.86,679.30 967.13,680.78 971.00,690.00
             967.73,694.15 967.31,694.74 967.00,700.00
             967.00,700.00 971.00,697.00 971.00,697.00
             970.13,701.88 969.01,710.59 972.72,714.60
             974.56,716.59 977.49,716.36 980.00,717.14
             980.00,717.14 999.00,724.00 999.00,724.00
             999.00,724.00 978.00,726.96 978.00,726.96
             978.00,726.96 968.00,726.96 968.00,726.96
             968.00,726.96 960.00,727.92 960.00,727.92
             960.00,727.92 951.00,727.04 951.00,727.04
             944.98,726.78 937.04,727.73 932.00,724.00
             932.00,724.00 948.00,723.44 948.00,723.44
             954.00,722.60 957.61,716.37 958.96,711.00
             961.35,701.47 960.25,680.35 954.87,672.00
             949.51,663.68 943.68,665.90 935.00,659.00
             942.55,659.00 946.94,660.10 948.00,651.00
             956.10,656.93 954.97,659.65 960.00,667.00
             960.00,667.00 965.00,636.00 965.00,636.00 Z
           M 801.00,639.00
           C 810.78,638.04 829.07,642.26 837.00,648.00
             837.00,648.00 818.00,651.05 818.00,651.05
             818.00,651.05 809.32,651.05 809.32,651.05
             809.32,651.05 801.00,639.00 801.00,639.00 Z
           M 987.00,638.00
           C 985.63,643.99 979.66,650.58 974.00,653.00
             974.00,653.00 987.00,638.00 987.00,638.00 Z
           M 1027.00,654.00
           C 1029.69,648.91 1033.24,648.29 1038.00,645.39
             1042.97,642.36 1045.31,639.81 1051.00,638.00
             1046.63,643.29 1033.83,652.98 1027.00,654.00 Z
           M 904.00,643.00
           C 909.66,646.03 914.98,648.89 919.00,654.00
             913.01,652.02 907.72,648.07 904.00,643.00 Z
           M 828.00,662.00
           C 838.78,660.75 835.64,654.06 841.21,651.15
             843.55,649.80 847.45,650.83 850.00,651.15
             856.64,652.32 867.88,651.90 873.00,656.00
             864.68,657.51 862.11,660.94 855.00,663.45
             846.88,666.32 837.53,664.96 833.00,674.00
             833.00,674.00 847.00,668.44 847.00,668.44
             847.00,668.44 860.00,665.24 860.00,665.24
             866.06,663.16 868.68,659.90 877.00,658.31
             887.37,656.33 900.27,656.98 911.00,657.00
             923.46,657.02 929.19,660.33 940.00,665.75
             945.44,668.48 950.13,670.67 953.52,676.04
             957.25,681.94 957.01,687.34 957.26,694.00
             957.61,703.81 958.10,720.75 944.00,719.85
             937.17,719.42 937.60,713.04 934.21,714.34
             932.34,715.05 932.09,718.10 931.00,719.57
             929.43,721.68 926.47,722.34 924.00,722.70
             915.89,723.87 899.87,717.99 892.00,715.05
             864.46,704.75 827.77,679.83 812.00,655.00
             812.00,655.00 832.00,653.00 832.00,653.00
             832.00,653.00 828.00,662.00 828.00,662.00 Z
           M 1001.00,655.00
           C 1005.44,654.41 1008.69,653.29 1013.00,655.00
             1008.88,656.00 1005.03,656.60 1001.00,655.00 Z
           M 1036.00,655.00
           C 1036.00,655.00 1039.00,658.00 1039.00,658.00
             1039.00,658.00 1036.00,655.00 1036.00,655.00 Z
           M 1093.00,660.00
           C 1097.87,657.51 1100.46,656.15 1106.00,657.00
             1101.89,663.94 1100.46,664.13 1093.00,662.00
             1093.00,662.00 1093.00,660.00 1093.00,660.00 Z
           M 1077.00,657.00
           C 1077.00,657.00 1082.00,658.00 1082.00,658.00
             1082.00,658.00 1077.00,659.00 1077.00,659.00
             1077.00,659.00 1077.00,657.00 1077.00,657.00 Z
           M 1098.00,667.00
           C 1092.82,674.23 1085.78,679.61 1079.00,685.25
             1060.35,700.76 1036.40,713.39 1013.00,719.96
             1004.52,722.34 1006.40,717.62 1001.90,717.12
             1001.90,717.12 997.00,717.78 997.00,717.78
             994.63,717.68 992.65,716.18 990.00,715.59
             987.33,714.99 984.56,715.72 982.13,714.17
             975.86,710.20 976.93,695.62 977.00,689.00
             977.22,670.61 989.16,662.99 1006.00,661.16
             1018.67,659.79 1030.28,659.48 1043.00,660.04
             1043.00,660.04 1056.00,661.00 1056.00,661.00
             1072.95,661.03 1081.84,660.94 1098.00,667.00 Z" />
</svg>
