<?xml version="1.0" encoding="UTF-8" standalone="no"?>
<!DOCTYPE svg PUBLIC "-//W3C//DTD SVG 20010904//EN"
              "http://www.w3.org/TR/2001/REC-SVG-20010904/DTD/svg10.dtd">

<svg xmlns="http://www.w3.org/2000/svg"
     width="132.275mm" height="132.275mm"
     viewBox="0 0 500 500">
  <path id="Selezione"
        fill="#357D82"
        d="M 253.00,158.00
           C 253.00,158.00 295.00,158.72 295.00,158.72
             302.63,159.71 308.20,160.08 314.96,164.47
             328.31,173.13 327.79,200.42 309.00,204.00
             314.23,209.00 319.47,208.23 323.91,216.00
             329.23,225.31 326.39,241.21 318.70,248.53
             313.43,253.55 306.95,255.60 300.00,257.00
             300.00,257.00 309.31,284.00 309.31,284.00
             309.31,284.00 331.00,346.00 331.00,346.00
             331.00,346.00 308.00,346.00 308.00,346.00
             308.00,346.00 301.00,321.00 301.00,321.00
             301.00,321.00 272.00,321.00 272.00,321.00
             269.76,321.00 266.21,320.79 264.30,322.02
             260.14,324.71 258.36,341.14 255.16,344.40
             252.56,347.05 237.27,346.00 233.00,346.00
             233.00,346.00 235.00,338.00 235.00,338.00
             227.54,344.41 218.14,349.86 209.00,353.55
             203.98,355.57 200.11,357.49 197.00,352.00
             193.72,353.05 188.64,353.37 185.70,351.02
             180.87,347.17 182.84,334.37 186.56,330.34
             189.81,326.81 194.52,326.29 199.00,325.59
             207.90,324.20 230.54,324.41 239.00,327.00
             239.00,327.00 242.00,319.00 242.00,319.00
             242.00,319.00 233.00,321.00 233.00,321.00
             233.00,321.00 237.00,315.00 237.00,315.00
             237.00,315.00 227.99,320.35 227.99,320.35
             227.99,320.35 214.00,321.00 214.00,321.00
             217.42,316.44 223.76,310.87 229.00,308.53
             237.36,304.79 246.12,305.47 250.00,296.00
             245.28,299.34 241.70,300.97 236.00,302.00
             236.00,302.00 241.70,286.00 241.70,286.00
             241.70,286.00 251.00,274.00 251.00,274.00
             251.00,274.00 241.00,283.00 241.00,283.00
             241.00,283.00 248.00,259.00 248.00,259.00
             248.00,259.00 241.00,273.00 241.00,273.00
             241.00,273.00 241.00,263.00 241.00,263.00
             241.00,263.00 239.00,263.00 239.00,263.00
             239.00,274.72 240.30,289.88 233.30,299.99
             230.05,304.70 215.47,314.33 210.00,317.00
             211.61,309.71 213.89,312.08 221.00,308.00
             221.00,308.00 214.00,309.00 214.00,309.00
             214.00,309.00 221.00,300.00 221.00,300.00
             221.00,300.00 215.00,304.00 215.00,304.00
             215.00,304.00 215.00,298.00 215.00,298.00
             215.00,298.00 213.32,305.00 213.32,305.00
             213.32,305.00 204.79,319.02 204.79,319.02
             204.79,319.02 194.00,321.52 194.00,321.52
             194.00,321.52 183.00,326.00 183.00,326.00
             183.00,326.00 191.55,313.00 191.55,313.00
             195.49,306.40 198.43,298.48 205.04,293.96
             213.23,288.37 215.56,289.36 224.00,288.00
             224.00,288.00 218.00,286.00 218.00,286.00
             218.00,286.00 226.00,282.00 226.00,282.00
             226.00,282.00 205.00,290.00 205.00,290.00
             210.77,276.49 228.39,267.24 233.00,262.00
             233.00,262.00 228.00,264.00 228.00,264.00
             229.49,255.78 232.21,254.35 237.00,248.00
             237.00,248.00 230.00,253.00 230.00,253.00
             230.00,253.00 229.00,247.00 229.00,247.00
             229.00,247.00 227.35,258.00 227.35,258.00
             225.55,263.78 219.85,268.72 215.00,272.00
             215.16,264.58 216.41,260.48 220.00,254.00
             220.00,254.00 217.00,254.00 217.00,254.00
             217.00,254.00 221.00,233.00 221.00,233.00
             221.00,233.00 219.00,233.00 219.00,233.00
             219.00,233.00 216.00,245.00 216.00,245.00
             216.00,245.00 214.00,237.00 214.00,237.00
             214.00,237.00 214.00,255.00 214.00,255.00
             213.99,262.16 212.78,271.80 209.01,278.00
             209.01,278.00 202.90,286.00 202.90,286.00
             200.47,289.23 198.92,292.14 196.00,295.00
             196.00,295.00 197.00,277.00 197.00,277.00
             197.00,277.00 194.00,284.00 194.00,284.00
             194.00,284.00 191.00,280.00 191.00,280.00
             195.50,293.63 193.06,310.84 180.00,319.00
             178.24,309.20 179.57,294.48 185.11,286.00
             185.11,286.00 202.16,264.00 202.16,264.00
             206.00,256.38 207.37,237.07 209.00,228.00
             209.00,228.00 204.00,229.00 204.00,229.00
             204.00,229.00 205.53,237.00 205.53,237.00
             205.81,242.82 202.55,259.05 199.64,263.98
             198.12,266.55 197.24,267.20 195.00,269.00
             195.00,269.00 198.00,261.00 198.00,261.00
             198.00,261.00 195.00,262.00 195.00,262.00
             195.00,255.66 196.03,248.74 192.89,243.00
             191.46,249.96 193.56,250.98 192.89,256.00
             191.51,264.07 186.36,268.01 179.00,270.00
             179.00,270.00 178.47,259.00 178.47,259.00
             178.47,259.00 187.00,246.00 187.00,246.00
             187.00,246.00 177.00,254.00 177.00,254.00
             177.00,254.00 177.99,243.65 177.99,243.65
             177.99,243.65 194.00,235.00 194.00,235.00
             194.00,235.00 186.00,238.00 186.00,238.00
             186.00,238.00 190.00,231.00 190.00,231.00
             183.38,236.26 184.75,239.46 175.00,240.00
             176.11,230.41 182.52,230.78 189.00,223.00
             189.00,223.00 185.00,225.00 185.00,225.00
             185.00,225.00 186.00,221.00 186.00,221.00
             181.88,225.63 183.37,227.36 177.00,230.00
             177.00,230.00 181.00,221.00 181.00,221.00
             181.00,221.00 177.00,223.00 177.00,223.00
             177.00,223.00 174.00,219.00 174.00,219.00
             175.73,225.10 175.49,230.58 172.00,236.00
             172.00,236.00 165.00,226.00 165.00,226.00
             166.45,233.73 170.70,239.91 166.00,248.00
             166.00,248.00 164.00,243.00 164.00,243.00
             164.00,243.00 161.00,245.00 161.00,245.00
             161.00,245.00 159.00,243.00 159.00,243.00
             159.00,243.00 158.00,243.00 158.00,243.00
             159.50,245.57 163.73,250.90 164.22,253.00
             165.04,256.48 161.63,264.80 160.00,268.00
             155.64,261.31 156.41,243.64 158.49,236.00
             160.14,229.93 163.26,227.54 162.00,221.00
             162.00,221.00 157.00,232.00 157.00,232.00
             157.00,232.00 152.00,223.00 152.00,223.00
             152.00,223.00 154.20,232.00 154.20,232.00
             155.56,236.66 155.31,245.40 154.20,250.00
             154.20,250.00 147.00,244.00 147.00,244.00
             147.00,244.00 147.00,247.00 147.00,247.00
             147.00,247.00 142.00,244.00 142.00,244.00
             146.54,249.77 150.65,250.51 152.84,254.18
             155.16,258.07 154.85,264.62 155.04,269.00
             155.04,269.00 155.96,277.00 155.96,277.00
             155.96,277.00 155.96,292.00 155.96,292.00
             139.80,280.36 140.79,270.41 138.72,253.00
             138.72,253.00 136.00,230.00 136.00,230.00
             136.00,230.00 133.00,230.00 133.00,230.00
             133.00,230.00 135.00,248.00 135.00,248.00
             135.00,248.00 125.00,232.00 125.00,232.00
             125.00,232.00 129.00,240.00 129.00,240.00
             129.00,240.00 125.00,238.00 125.00,238.00
             132.47,248.45 135.87,247.43 136.00,262.00
             136.00,262.00 132.00,259.00 132.00,259.00
             132.00,259.00 137.00,272.00 137.00,272.00
             122.90,266.43 125.97,248.54 119.00,241.00
             119.00,241.00 119.00,245.00 119.00,245.00
             119.00,245.00 114.00,242.00 114.00,242.00
             118.88,248.40 121.04,248.66 123.00,257.00
             123.00,257.00 115.00,252.00 115.00,252.00
             115.00,252.00 125.00,264.00 125.00,264.00
             113.96,263.75 111.19,258.97 106.00,250.00
             106.00,250.00 107.00,255.00 107.00,255.00
             107.00,255.00 102.00,253.00 102.00,253.00
             102.00,253.00 117.00,264.45 117.00,264.45
             117.00,264.45 124.00,268.00 124.00,268.00
             124.00,268.00 112.00,270.13 112.00,270.13
             119.86,271.89 120.16,269.65 125.00,270.13
             131.00,271.02 137.62,277.33 141.00,282.00
             141.00,282.00 129.00,282.00 129.00,282.00
             129.00,282.00 129.00,284.00 129.00,284.00
             129.00,284.00 133.00,285.00 133.00,285.00
             133.00,285.00 132.00,285.00 132.00,285.00
             132.00,285.00 130.00,287.00 130.00,287.00
             133.21,286.28 137.83,284.62 141.00,285.33
             146.41,286.54 156.68,298.91 159.00,304.00
             150.50,303.23 144.52,299.19 138.00,294.00
             138.00,294.00 144.00,303.00 144.00,303.00
             144.00,303.00 139.00,305.00 139.00,305.00
             150.53,304.07 160.11,303.70 164.00,317.00
             164.00,317.00 166.00,315.00 166.00,315.00
             166.00,315.00 167.00,324.00 167.00,324.00
             158.25,323.21 144.83,316.09 139.64,308.99
             139.64,308.99 132.00,294.00 132.00,294.00
             132.00,294.00 135.00,306.00 135.00,306.00
             124.73,301.97 123.09,292.65 115.71,285.18
             110.25,279.66 106.03,279.88 105.00,271.00
             102.27,273.55 103.10,274.58 104.00,278.00
             104.00,278.00 95.00,277.00 95.00,277.00
             99.84,280.88 102.93,279.14 108.00,281.69
             116.13,285.77 122.04,295.68 125.00,304.00
             108.60,298.27 107.60,295.52 97.00,283.00
             95.60,286.27 94.32,285.52 91.00,286.00
             96.33,288.14 98.25,288.36 102.00,293.00
             102.00,293.00 91.00,296.00 91.00,296.00
             100.25,295.92 100.40,293.43 109.00,298.14
             112.06,299.82 113.49,300.50 116.00,303.00
             110.87,303.42 105.04,303.57 101.00,307.00
             112.57,305.47 126.19,302.55 136.00,311.00
             136.00,311.00 129.00,312.00 129.00,312.00
             129.00,312.00 129.00,314.00 129.00,314.00
             137.23,314.01 140.53,314.06 146.00,321.00
             131.06,322.99 128.13,317.86 117.00,310.00
             117.00,310.00 126.00,320.00 126.00,320.00
             116.60,319.21 113.24,316.55 105.00,313.00
             105.00,313.00 108.00,317.00 108.00,317.00
             108.00,317.00 89.00,310.00 89.00,310.00
             89.00,310.00 95.00,315.00 95.00,315.00
             95.00,315.00 89.00,317.00 89.00,317.00
             89.00,317.00 79.45,298.00 79.45,298.00
             72.76,281.47 70.51,261.55 73.61,244.00
             84.81,180.71 148.44,146.01 208.00,167.69
             228.14,175.03 239.36,186.28 253.00,202.00
             253.00,202.00 253.00,158.00 253.00,158.00 Z
           M 273.00,175.00
           C 273.00,175.00 273.00,191.00 273.00,191.00
             273.04,192.95 272.90,195.63 274.60,196.98
             276.08,198.15 279.18,197.99 281.00,198.00
             286.32,198.03 293.16,198.32 297.90,195.56
             304.14,191.93 304.80,182.00 298.89,177.72
             293.64,173.93 279.68,175.00 273.00,175.00 Z
           M 364.00,195.00
           C 370.02,189.44 370.93,184.89 380.00,181.76
             383.21,180.65 392.55,178.27 394.24,182.43
             395.12,184.08 394.23,188.05 394.24,190.00
             393.96,191.77 394.13,195.19 393.40,196.69
             391.92,199.70 387.95,198.71 384.00,199.30
             378.46,200.12 373.40,202.59 369.94,207.09
             366.33,211.79 366.03,216.34 366.00,222.00
             366.00,222.00 366.00,268.00 366.00,268.00
             366.00,268.00 388.00,268.00 388.00,268.00
             388.00,268.00 388.00,283.00 388.00,283.00
             388.00,283.00 366.00,283.00 366.00,283.00
             366.00,283.00 366.00,318.00 366.00,318.00
             366.07,323.17 366.87,327.16 372.02,329.68
             376.28,331.77 384.10,329.40 389.00,329.00
             389.00,329.00 389.00,344.00 389.00,344.00
             382.93,345.37 378.42,346.83 372.00,346.99
             365.54,347.14 358.34,346.68 353.09,342.44
             347.40,337.85 346.55,331.72 345.58,325.00
             345.58,325.00 345.00,283.00 345.00,283.00
             345.00,283.00 335.00,283.00 335.00,283.00
             335.05,269.83 339.06,274.53 345.59,267.62
             348.02,265.05 349.10,261.34 350.00,258.00
             350.00,258.00 346.00,258.00 346.00,258.00
             346.00,258.00 346.00,182.00 346.00,182.00
             348.88,182.00 358.29,181.45 360.28,182.99
             362.49,184.71 363.61,192.20 364.00,195.00 Z
           M 275.31,214.60
           C 274.56,215.24 274.34,214.80 273.60,216.31
             272.66,218.23 272.95,231.05 273.00,234.00
             273.04,235.95 272.90,238.63 274.60,239.98
             276.19,241.23 280.01,241.00 282.00,241.00
             287.35,241.01 293.00,241.34 297.98,239.03
             306.44,235.13 307.35,222.68 300.89,217.51
             295.76,213.39 281.47,213.11 275.31,214.60 Z
           M 170.00,239.00
           C 172.89,243.38 174.27,253.59 175.00,259.00
             164.66,253.98 169.80,247.73 170.00,239.00 Z
           M 166.00,256.00
           C 166.00,256.00 168.00,256.00 168.00,256.00
             169.73,258.37 172.23,261.43 173.43,264.00
             176.65,270.89 176.00,284.25 176.00,292.00
             170.00,289.95 164.79,284.59 164.11,278.00
             163.79,272.92 168.12,266.66 164.11,265.00
             164.11,265.00 166.00,256.00 166.00,256.00 Z
           M 282.00,259.00
           C 282.00,259.00 276.98,274.00 276.98,274.00
             276.98,274.00 268.00,304.00 268.00,304.00
             268.00,304.00 295.00,304.00 295.00,304.00
             295.00,304.00 290.72,287.00 290.72,287.00
             290.72,287.00 282.00,259.00 282.00,259.00 Z
           M 191.00,263.00
           C 191.00,263.00 192.00,263.00 192.00,263.00
             192.00,263.00 191.00,264.00 191.00,264.00
             191.00,264.00 191.00,263.00 191.00,263.00 Z
           M 176.00,264.00
           C 176.00,264.00 177.00,264.00 177.00,264.00
             177.00,264.00 176.00,265.00 176.00,265.00
             176.00,265.00 176.00,264.00 176.00,264.00 Z
           M 163.00,266.00
           C 163.95,268.98 163.67,269.41 162.00,272.00
             162.00,272.00 163.00,266.00 163.00,266.00 Z
           M 192.00,266.00
           C 193.85,272.85 186.08,281.28 181.00,285.00
             178.07,272.94 182.51,271.47 192.00,266.00 Z
           M 160.00,276.00
           C 160.00,276.00 166.68,287.00 166.68,287.00
             168.93,289.92 173.24,293.85 174.40,297.00
             176.14,301.72 174.47,315.97 173.00,321.00
             169.83,317.51 168.81,315.16 166.76,311.00
             159.72,296.73 160.00,291.28 160.00,276.00 Z
           M 205.00,284.00
           C 205.00,284.00 206.00,284.00 206.00,284.00
             206.00,284.00 205.00,285.00 205.00,285.00
             205.00,285.00 205.00,284.00 205.00,284.00 Z
           M 178.00,287.00
           C 178.00,287.00 179.00,291.00 179.00,291.00
             179.00,291.00 178.00,287.00 178.00,287.00 Z
           M 200.00,293.00
           C 199.83,296.51 198.48,297.67 196.00,300.00
             196.00,300.00 200.00,293.00 200.00,293.00 Z
           M 158.00,298.00
           C 158.00,298.00 159.00,298.00 159.00,298.00
             159.00,298.00 158.00,299.00 158.00,299.00
             158.00,299.00 158.00,298.00 158.00,298.00 Z
           M 159.00,300.00
           C 159.00,300.00 160.00,300.00 160.00,300.00
             160.00,300.00 159.00,301.00 159.00,301.00
             159.00,301.00 159.00,300.00 159.00,300.00 Z
           M 160.00,303.00
           C 160.00,303.00 161.00,303.00 161.00,303.00
             161.00,303.00 160.00,304.00 160.00,304.00
             160.00,304.00 160.00,303.00 160.00,303.00 Z
           M 161.00,306.00
           C 161.00,306.00 162.00,306.00 162.00,306.00
             162.00,306.00 161.00,307.00 161.00,307.00
             161.00,307.00 161.00,306.00 161.00,306.00 Z
           M 176.00,315.00
           C 176.00,315.00 178.00,332.00 178.00,332.00
             178.00,332.00 182.00,331.00 182.00,331.00
             178.70,336.96 178.87,338.38 178.00,345.00
             178.00,345.00 180.00,344.00 180.00,344.00
             180.17,357.02 186.88,351.46 195.00,358.00
             179.57,360.05 183.07,360.03 167.00,360.00
             142.01,359.96 110.61,345.41 96.00,325.00
             96.00,325.00 111.00,324.00 111.00,324.00
             111.00,324.00 110.00,328.00 110.00,328.00
             110.00,328.00 117.21,322.84 117.21,322.84
             117.21,322.84 130.00,322.84 130.00,322.84
             125.52,329.97 118.74,326.38 112.00,334.00
             117.60,331.13 118.56,331.37 124.00,329.54
             124.00,329.54 131.00,326.60 131.00,326.60
             136.71,324.45 144.83,324.92 151.00,325.00
             157.92,325.10 168.44,328.45 171.83,335.02
             172.99,337.27 172.96,339.54 173.00,342.00
             173.05,346.01 173.67,352.58 168.91,354.21
             167.20,354.79 165.89,354.40 164.46,353.40
             164.46,353.40 162.00,351.00 162.00,351.00
             159.69,356.25 158.91,355.21 154.00,358.00
             157.51,357.92 168.32,357.25 170.74,355.40
             177.34,350.70 175.63,335.51 170.74,330.27
             168.34,327.90 164.79,326.82 162.00,325.00
             162.00,325.00 170.00,322.00 170.00,322.00
             170.00,322.00 173.00,329.00 173.00,329.00
             177.01,324.64 176.00,320.60 176.00,315.00 Z
           M 91.00,318.00
           C 98.65,316.63 106.34,316.26 113.00,321.00
             100.90,323.20 95.76,326.56 91.00,318.00 Z
           M 213.00,317.00
           C 213.00,317.00 210.00,319.00 210.00,319.00
             210.00,319.00 211.00,319.00 211.00,319.00
             211.00,319.00 213.00,317.00 213.00,317.00 Z
           M 184.00,318.00
           C 184.00,318.00 182.00,321.00 182.00,321.00
             182.00,321.00 182.00,320.00 182.00,320.00
             182.00,320.00 184.00,318.00 184.00,318.00 Z
           M 148.00,319.00
           C 148.00,319.00 149.00,319.00 149.00,319.00
             149.00,319.00 148.00,320.00 148.00,320.00
             148.00,320.00 148.00,319.00 148.00,319.00 Z
           M 150.00,320.00
           C 150.00,320.00 151.00,320.00 151.00,320.00
             151.00,320.00 150.00,321.00 150.00,321.00
             150.00,321.00 150.00,320.00 150.00,320.00 Z
           M 153.00,322.00
           C 153.00,322.00 154.00,322.00 154.00,322.00
             154.00,322.00 153.00,323.00 153.00,323.00
             153.00,323.00 153.00,322.00 153.00,322.00 Z
           M 232.00,323.00
           C 232.00,323.00 233.00,323.00 233.00,323.00
             233.00,323.00 232.00,324.00 232.00,324.00
             232.00,324.00 232.00,323.00 232.00,323.00 Z" />
</svg>
